<?xml version="1.0" encoding="UTF-8" standalone="no"?>
<!-- Created with Inkscape (http://www.inkscape.org/) -->

<svg
   version="1.1"
   id="svg2"
   xml:space="preserve"
   width="350.3"
   height="100"
   viewBox="0 0 345.34265 90"
   sodipodi:docname="315949ff623122869508aabcd20d62f0.eps"
   xmlns:inkscape="http://www.inkscape.org/namespaces/inkscape"
   xmlns:sodipodi="http://sodipodi.sourceforge.net/DTD/sodipodi-0.dtd"
   xmlns="http://www.w3.org/2000/svg"
   xmlns:svg="http://www.w3.org/2000/svg"><defs
     id="defs6" /><sodipodi:namedview
     id="namedview4"
     pagecolor="#ffffff"
     bordercolor="#666666"
     borderopacity="1.0"
     inkscape:pageshadow="2"
     inkscape:pageopacity="0.0"
     inkscape:pagecheckerboard="0" /><g
     id="g8"
     inkscape:groupmode="layer"
     inkscape:label="ink_ext_XXXXXX"
     transform="matrix(1.3,0,0,-1.3,0,593.4)"><g
       id="g10"
       transform="matrix(0.1,0,0,0.1,40,324)"><path
         d="M 429.5 778.8 c 4.3 3.9 7.9 16.3 10.7 37.2 c 2.8 20.9 4.3 47.8 4.3 80.6 h 131.1 v -117.8 z m 221.1 180.9 H 369.6 c 0 -70.1 -1.8 -117.8 -5.3 -143 c -3.5 -25.3 -8.7 -37.9 -15.5 -37.9 H 335.5 v -39 v -49.2 l 90.4 25.4 h 151 l 92.4 -25.4 v 46.3 v 41.9 h -18.7 v 180.9"
         style="fill: #0b8ed8; fill-rule: nonzero; stroke: none; fill-opacity: 1"
         id="path38" /><path
         d="M 957.7 783.1 c -7.1 -5.1 -32.3 -7.7 -75.4 -7.7 c -42.9 0 -68 2.6 -75.1 7.7 c -7.2 5.1 -10.7 23.2 -10.7 54.3 c 0 31.3 3.6 49.5 10.7 54.7 c 7.2 5.1 32.3 7.7 75.5 7.7 c 42.9 0 68 -2.6 75.1 -7.7 c 7.2 -5.1 10.8 -23.3 10.8 -54.7 c 0 -31.1 -3.6 -49.2 -10.8 -54.3 z m 63.9 160.9 c -15.4 12.5 -61.9 18.7 -139.3 18.7 c -77.7 0 -124.2 -6.3 -139.7 -19.1 c -14.1 -11.6 -21.1 -47 -21.1 -106.3 c 0 -43.1 2.3 -71.4 6.8 -84.8 c 5.9 -17.5 20 -28.8 42.2 -34.1 c 17.7 -4.1 54.9 -6.1 111.7 -6.1 c 77.7 0 124.2 6.2 139.7 18.7 c 14.3 11.6 21.5 47 21.5 106.3 c 0 59.3 -7.3 94.8 -21.8 106.6"
         style="fill: #0b8ed8; fill-rule: nonzero; stroke: none; fill-opacity: 1"
         id="path40" /><path
         d="M 1335.8 959 v -85.2 h -162.3 v 85.2 h -74.7 v -243.1 h 74.7 v 95.2 h 162.3 v -95.2 h 74.7 v 243.1 h -74.7"
         style="fill: #0b8ed8; fill-rule: nonzero; stroke: none; fill-opacity: 1"
         id="path42" /><path
         d="M 91.2 1268.5 c -123.1 0 -255.7 -97 -378 -97 c -49.9 0 -96.2 12.2 -138.5 48.1 v -82.2 c 42.3 -35.9 88.6 -48.1 138.5 -48.1 c 122.3 0 254.9 97 378 97 c 49.5 0 103 -20 140.8 -51.2 v 82.2 c -37.8 31.1 -91.3 51.2 -140.8 51.2"
         style="fill: #0b8ed8; fill-rule: evenodd; stroke: none; fill-opacity: 1"
         id="path44" /><path
         d="M -286.8 1010.3 c -49.9 0 -96.2 12.2 -138.5 48.1 v -36.3 v -45.1 v -36.3 c 42.3 -35.9 88.6 -48.1 138.5 -48.1 c 122.3 0 254.9 97 378 97 c 49.5 0 103 -20 140.8 -51.2 v 36.3 v 45.2 v 36.3 c -37.8 31.1 -91.3 51.2 -140.8 51.2 c -123.1 0 -255.7 -97 -378 -97"
         style="fill: #231f20; fill-rule: evenodd; stroke: none; fill-opacity: 1"
         id="path46" /><path
         d="M -286.8 815.2 c -49.9 0 -96.2 12.2 -138.5 48.1 v -36.3 v -22.6 v -22.6 v -13.7 v -22.6 v -22.6 v -36.3 c 42.3 -35.9 88.6 -48.1 138.5 -48.1 c 122.3 0 254.9 97 378 97 c 49.5 0 103 -20 140.8 -51.2 v 36.3 v 22.6 v 22.6 v 13.7 v 22.6 v 22.6 v 36.3 c -37.8 31.1 -91.3 51.2 -140.8 51.2 c -123.1 0 -255.7 -97 -378 -97"
         style="fill: #231f20; fill-rule: evenodd; stroke: none; fill-opacity: 1"
         id="path48" /><path
         d="M 1016.6 1268.6 l -69.5 -147.5 l -70.1 147.5 h -134.5 v -243.1 v -0.4 h 26 h 49 h 0.1 v 191.4 c 0.5 -0.6 1 -1.3 1.6 -2.4 c 1.1 -2.3 2.4 -4.9 3.8 -7.8 l 93.3 -181.2 h 61.3 l 86.5 181.2 c 0.9 2.3 2 4.7 3.4 7.4 c 0.6 1.2 1.2 2 1.7 2.6 v -191.1 h 0.3 h 48.8 h 26.2 v 0.4 v 243.1 h -74.7 h -53"
         style="fill: #231f20; fill-rule: nonzero; stroke: none; fill-opacity: 1"
         id="path50" /><path
         d="M 2114.9 1091.3 c -8.3 -4 -29 -6 -62.2 -6 c -36.6 0 -58 2.8 -64.4 8.5 c -6.4 5.7 -9.6 23.5 -9.6 53.5 c 0 30.2 3.2 48.1 9.6 53.8 c 6.3 5.7 27.8 8.5 64.4 8.5 c 32.7 0 53.7 -2.4 63 -7.2 c 7.5 -3.9 11.2 -12.8 11.2 -26.9 h 75.3 c 0 43.1 -7 69.7 -21.1 79.7 c -16.1 11.6 -58.9 17.4 -128.4 17.4 c -70 0 -112.5 -6.6 -127.7 -19.8 c -14.1 -12.3 -21.1 -47.3 -21.1 -105.3 c 0 -58.1 7.3 -93.5 22 -106.3 c 14.7 -12.7 56.9 -19.1 126.9 -19.1 c 69.9 0 113 5.8 129.1 17.4 c 13.6 9.8 20.4 36.3 20.4 79.7 h -74.9 c 0 -14.8 -4.1 -24.1 -12.4 -28.1"
         style="fill: #231f20; fill-rule: nonzero; stroke: none; fill-opacity: 1"
         id="path52" /><path
         d="M 1539.1 1025.8 h 74.7 v 243.1 h -74.7 v -243.1"
         style="fill: #231f20; fill-rule: nonzero; stroke: none; fill-opacity: 1"
         id="path54" /><path
         d="M 1863.4 1268.9 H 1760.6 L 1614.2 1120.9 h 61.1 l 95 -95.2 h 108.7 l -137.3 127.4 l 121.6 115.8"
         style="fill: #231f20; fill-rule: nonzero; stroke: none; fill-opacity: 1"
         id="path56" /><path
         d="M 1201.3 1211.1 h 262.5 v 58.8 h -262.5 v -58.8"
         style="fill: #231f20; fill-rule: nonzero; stroke: none; fill-opacity: 1"
         id="path58" /><path
         d="M 1201.3 1026 h 262.5 v 58.8 h -262.5 v -58.8"
         style="fill: #231f20; fill-rule: nonzero; stroke: none; fill-opacity: 1"
         id="path60" /><path
         d="M 1201.3 1118.5 h 262.5 v 58.8 h -262.5 v -58.8"
         style="fill: #231f20; fill-rule: nonzero; stroke: none; fill-opacity: 1"
         id="path62" /><path
         d="M 544.8 1268.9 L 416.8 1089.1 c -0.9 -1.9 -1.8 -3.9 -2.8 -5.8 v 185.7 h -0.3 h -0.2 h -70.3 h -4.4 v -243.1 v -0.1 h 122.6 l 128.4 180.2 c 0.8 1.7 1.7 3.5 2.6 5.3 v -185.5 h 0 h 0.1 h 36.8 h 33.9 h 4.3 v 0.1 v 243.1 h -74.7 h -47.9"
         style="fill: #231f20; fill-rule: nonzero; stroke: none; fill-opacity: 1"
         id="path64" /></g></g></svg>
