<svg xmlns="http://www.w3.org/2000/svg" width="175" height="60" viewBox="0 0 175 60" version="1.1">
<path d="M 4.177 8.250 C 4.913 11.096, 14.586 26.946, 15.602 26.972 C 16.208 26.987, 17.969 23.196, 19.513 18.547 C 23.148 7.609, 22.741 7, 11.804 7 C 5.938 7, 3.938 7.328, 4.177 8.250 M 151 51.720 C 146.325 54.041, 140.250 56.831, 137.500 57.918 L 132.500 59.896 143.595 59.948 C 153.120 59.993, 154.924 59.741, 156.347 58.169 C 157.259 57.162, 157.703 56.037, 157.336 55.669 C 156.968 55.301, 157.192 55, 157.833 55 C 158.475 55, 158.926 54.663, 158.836 54.250 C 158.746 53.837, 159.025 52.242, 159.456 50.703 C 159.887 49.165, 160.074 47.815, 159.870 47.703 C 159.667 47.592, 155.675 49.399, 151 51.720" stroke="none" fill="#000" fill-rule="evenodd"/>
<path d="M 1.500 3 C 3.050 5.998, 3.058 6, 12.091 6 C 21.885 6, 25 6.975, 25 10.042 C 25 11.126, 21.782 20.673, 17.848 31.257 C 13.189 43.792, 10.662 52.069, 10.598 55 L 10.500 59.500 30.500 59.783 C 41.500 59.939, 51.422 59.841, 52.548 59.565 C 53.675 59.289, 55.546 57.362, 56.707 55.282 C 58.657 51.788, 66.776 30.433, 72.687 13.250 L 75.181 6 116.197 6 C 154.863 6, 157.174 6.100, 156.508 7.750 C 156.120 8.713, 152.421 18.725, 148.287 30 C 144.153 41.275, 140.317 51.063, 139.763 51.750 C 138.881 52.844, 132 53.618, 132 52.623 C 132 52.157, 141.832 24.995, 145.390 15.631 C 146.825 11.853, 148 8.590, 148 8.381 C 148 8.171, 144 8, 139.111 8 L 130.222 8 123.670 25.750 C 120.066 35.512, 115.772 47.212, 114.128 51.750 L 111.140 60 121.532 60 C 133.029 60, 135.760 59.237, 151.221 51.709 C 158.142 48.339, 160.004 47.776, 160.240 48.981 C 160.524 50.427, 165 39.414, 165 37.270 C 165 36.706, 164.313 35.675, 163.473 34.978 C 162.142 33.873, 162.316 33.486, 164.839 31.952 C 168.376 29.800, 172.879 19.123, 173.674 11 C 174.129 6.360, 173.872 5.070, 172.034 2.750 L 169.855 0 113.510 0 L 57.165 0 55.580 4.250 C 54.707 6.588, 50.434 18.114, 46.083 29.863 C 41.733 41.613, 37.743 51.657, 37.218 52.182 C 36.693 52.707, 34.690 52.993, 32.767 52.818 L 29.270 52.500 36.105 33.500 C 43.584 12.711, 44.523 9.218, 43.609 5.577 C 42.255 0.185, 41.468 0, 19.903 -0 L -0.051 -0 1.500 3 M 79.568 10.250 C 77.981 11.654, 75.705 16.183, 73.512 22.300 C 67.495 39.087, 68.499 41, 83.329 41 C 92.754 41, 93 41.059, 93 43.300 C 93 47.514, 91.390 48, 77.439 48 L 64.278 48 62.139 53.589 C 60.962 56.663, 60 59.363, 60 59.589 C 60 59.815, 70.132 60, 82.515 60 L 105.029 60 106.948 56.845 C 110.060 51.728, 115.184 36.481, 114.828 33.396 C 114.351 29.254, 111.042 28.032, 100.250 28.015 C 90.733 28, 90.043 27.657, 92.035 23.934 C 92.980 22.168, 94.247 22, 106.591 22 L 120.112 22 121.983 17.750 C 123.012 15.412, 124.160 12.262, 124.535 10.750 L 125.217 8 103.664 8 C 82.734 8, 82.038 8.065, 79.568 10.250 M 158.564 52.707 C 158.022 54.132, 158.136 54.247, 159.124 53.267 C 159.808 52.588, 160.115 51.781, 159.807 51.474 C 159.499 51.166, 158.940 51.721, 158.564 52.707" stroke="none" fill="#000" fill-rule="evenodd"/>
</svg>