<svg fill="none" xmlns="http://www.w3.org/2000/svg" height="55px" width="100px" viewBox="0 0 70 25">
  <g clip-path="url(#logo_svg__clip0)" fill-rule="evenodd" clip-rule="evenodd">
  <path d="M67.495 1.449S65.4.425 61.098.425c-4.301 0-13.082 1.94-13.082 11.526 0 9.253 7.936 11.81 13.735 11.81 2.866 0 4.98-.702 6.137-1.185l-1.079-4.513c-.893.414-2.463.796-4.524.796-2.445 0-7.185-.781-7.185-6.908 0-6.128 4.83-6.628 6.554-6.628 1.725 0 3.45.329 4.623.974l1.218-4.848zM9.98 13.98l1.1-3.771 1.057-4.192h.133l1.057 4.192 1.079 3.77H9.98zm7.109 9.49h7.352L16.75 1.07h-8.99l-7.796 22.4h7.355l1.298-4.654h7.165l1.308 4.653zM44.252 1.635s-2.6-1.21-7.194-1.21c-4.227 0-12.915 1.788-12.915 11.597 0 9.533 8.01 11.695 13.051 11.695 3.647 0 6.203-.514 7.806-1.11V9.6h-5.7v9.238c-.563.14-1.397.198-2.436.198-1.564 0-5.958-.775-5.958-7.014 0-5.978 4.36-6.668 6.634-6.668 1.929 0 4.141.434 5.489 1.117l1.223-4.836z" fill="#030852"></path>
  <path d="M35.4 14.4h3.9L45 9.6h-9.6v4.8z" fill="#F5222D"></path>
  </g>
  <!-- <defs>
    <clipPath id="logo_svg__clip0">
      <path fill="#fff" d="M0 0h68.4v24H0z"></path>
    </clipPath>
  </defs> -->
</svg>