 <svg xmlns="http://www.w3.org/2000/svg" width="104" height="55" viewBox="0 0 104 35" fill="none"> <g clip-path="url(#clip0_58_1399)"> <path d="M34.8841 -0.0398827H37.4966V12.6018H43.3749V15.0875H34.8828V-0.0398827H34.8841Z" fill="#0B2344"/> <path d="M44.7979 14.8706L50.0456 -0.0398827H53.7032L58.9509 14.8706V15.0863H56.381L55.0534 11.2181H48.6953L47.3677 15.0863H44.7991V14.8706H44.7979ZM51.7224 2.44583L49.567 8.73365H54.183L52.0276 2.44583H51.7224Z" fill="#0B2344"/> <path d="M60.7254 -0.0398827H67.1488C70.5677 -0.0398827 72.4832 1.75397 72.4832 4.84427C72.4832 7.15671 71.3728 8.88574 68.8909 9.4467L73.1363 14.8706V15.0863H70.0439L65.8412 9.68356L63.3367 9.70475V15.0851H60.7241V-0.0398827H60.7254ZM67.1048 7.19909C68.651 7.19909 69.8706 6.46485 69.8706 4.93029C69.8706 3.26609 68.6949 2.44583 67.1048 2.44583H63.3379V7.20034H67.1048V7.19909Z" fill="#0B2344"/> <path d="M78.7185 2.44583H74.1465V-0.0398827H85.9043V2.44583H81.3323V15.0875H78.7197V2.44583H78.7185Z" fill="#0B2344"/> <path d="M85.1118 14.8706L90.3595 -0.0398827H94.0171L99.2649 14.8706V15.0863H96.695L95.3674 11.2181H89.0093L87.6817 15.0863H85.1118V14.8706ZM92.0364 2.44583L89.881 8.73365H94.4969L92.3416 2.44583H92.0364Z" fill="#0B2344"/> <path d="M33.3604 26.7407C33.3604 22.3539 36.6261 18.8959 41.09 18.8959C44.5517 18.8959 47.1429 20.9278 48.1665 23.8012V24.0169H45.6193L45.4234 23.714C44.465 22.2231 42.8548 21.3155 41.0247 21.3804C37.9763 21.4888 35.9516 23.8224 35.9516 26.7831C35.9516 29.917 37.9549 32.1858 41.1553 32.1858C43.6812 32.1858 45.7499 30.8246 46.1845 28.7066H42.0697V26.4378H48.7104V34.3474H46.4244V31.7969H46.2938C45.554 33.2666 43.6373 34.6716 41.0247 34.6716C36.5168 34.6716 33.3604 31.3656 33.3604 26.7407Z" fill="#0B2344"/> <path d="M51.4622 19.2213H54.0748V31.863H59.953V34.3487H51.4609V19.2213H51.4622Z" fill="#0B2344"/> <path d="M61.3765 34.1318L66.6242 19.2213H70.2818L75.5295 34.1318V34.3474H72.9597L71.632 30.4792H65.274L63.9463 34.3474H61.3765V34.1318ZM68.301 21.7057L66.1456 27.9935H70.7616L68.6062 21.7057H68.301Z" fill="#0B2344"/> <path d="M76.2065 29.745V29.5293H78.7538L78.8191 29.745C79.4283 31.7333 80.5612 32.2955 82.3687 32.2955C83.9802 32.2955 85.461 31.863 85.461 30.1564C85.461 28.7951 84.568 28.4062 83.4803 28.2329L80.9104 27.8439C78.0366 27.4114 76.6864 25.6612 76.6864 23.4136C76.6864 20.1936 79.3215 18.8971 82.1074 18.8971C85.0038 18.8971 87.0939 20.3444 87.7244 23.3275V23.5432H85.2852L85.1985 23.3275C84.6107 21.8802 83.5657 21.2744 81.9102 21.2744C80.4733 21.2744 79.167 21.8366 79.167 23.2627C79.167 24.7761 80.408 25.1426 81.649 25.337L83.935 25.7048C87.0273 26.2022 87.9631 27.8876 87.9631 29.9619C87.9631 33.3551 85.1106 34.6728 82.2581 34.6728C79.059 34.6715 76.9024 33.1806 76.2065 29.745Z" fill="#0B2344"/> <path d="M89.4033 29.745V29.5293H91.9506L92.0159 29.745C92.6251 31.7333 93.758 32.2955 95.5654 32.2955C97.1769 32.2955 98.6578 31.863 98.6578 30.1564C98.6578 28.7951 97.7648 28.4062 96.677 28.2329L94.1072 27.8439C91.2334 27.4114 89.8831 25.6612 89.8831 23.4136C89.8831 20.1936 92.5183 18.8971 95.3042 18.8971C98.2006 18.8971 100.291 20.3444 100.921 23.3275V23.5432H98.482L98.3953 23.3275C97.8075 21.8802 96.7624 21.2744 95.107 21.2744C93.6701 21.2744 92.3638 21.8366 92.3638 23.2627C92.3638 24.7761 93.6048 25.1426 94.8457 25.337L97.1317 25.7048C100.224 26.2022 101.16 27.8876 101.16 29.9619C101.16 33.3551 98.3074 34.6728 95.4549 34.6728C92.2558 34.6715 90.1004 33.1806 89.4033 29.745Z" fill="#0B2344"/> <path d="M101.536 -0.200691C102.925 -0.200691 104.004 0.870133 104.004 2.24887C104.004 3.61015 102.925 4.68097 101.536 4.68097C100.145 4.68097 99.0664 3.61015 99.0664 2.24887C99.0664 0.870133 100.145 -0.200691 101.536 -0.200691ZM103.382 2.24887C103.382 1.15934 102.632 0.416371 101.536 0.416371C100.438 0.416371 99.6882 1.16059 99.6882 2.24887C99.6882 3.31969 100.438 4.06391 101.536 4.06391C102.632 4.06391 103.382 3.31969 103.382 2.24887ZM100.713 1.03344H101.646C102.195 1.03344 102.488 1.25159 102.488 1.8325C102.488 2.10426 102.379 2.35857 102.067 2.50442L102.58 3.26733V3.32218H101.958L101.537 2.63282H101.263V3.32218H100.714V1.03344H100.713ZM101.536 2.12296C101.792 2.12296 101.884 2.01451 101.884 1.8325C101.884 1.5969 101.811 1.54205 101.536 1.54205H101.262V2.12296H101.536Z" fill="#0B2344"/> <path d="M24.4978 22.2231H12.2715V34.3574H24.4978V22.2231Z" fill="#2450A0"/> <path d="M24.4976 -0.0398865H12.2852V22.2231H24.4976V-0.0398865Z" fill="#82DCFA"/> <path d="M12.2852 -0.0398903H0.03125V34.3574H12.2852V-0.0398903Z" fill="#3D81F2"/> </g> <defs> <clipPath id="clip0_58_1399"> <rect width="104" height="34.406" fill="white"/> </clipPath> </defs> </svg>