<svg viewBox="0 0 714 125" xmlns="http://www.w3.org/2000/svg" width="300" height="55">
  <g fill="#23306C" fill-rule="evenodd">
    <path d="M55.571.608l55.46 32.02v64.04l-55.46 32.02-55.46-32.02v-64.04L55.57.608zm0 15.077l42.404 24.482V89.13l-42.404 24.48-42.403-24.48V40.167L55.57 15.685zm-2.368 93.828L15.546 44.29l23.318 20.111 16.707.245 8.14 14.594-5.758 30.249L95.61 44.268 72.28 64.4l-16.709.247-8.14 14.594 5.772 30.272zM17.91 40.167h75.294L64.138 50.303l-8.567 14.344-8.568-14.344-29.092-10.136zM703.615 43.898c0-3.786-.351-6.353-1.058-7.7-.705-1.347-1.973-2.02-3.784-2.02-1.782 0-3.036.657-3.738 1.955-.705 1.299-1.06 3.884-1.06 7.765v37.934c0 3.912.355 6.515 1.06 7.795.702 1.282 1.956 1.925 3.738 1.925 1.811 0 3.077-.675 3.784-2.006.707-1.33 1.058-3.897 1.058-7.714V43.898zm9.031 1.747v34.438c0 7.135-1.028 12.03-3.081 14.661-2.052 2.628-5.71 3.944-10.97 3.944-5.053 0-8.6-1.332-10.635-4.008-2.033-2.68-3.047-7.539-3.047-14.597V45.645c0-7.123 1.028-11.98 3.08-14.579 2.053-2.597 5.727-3.9 11.02-3.9 5.083 0 8.613 1.32 10.616 3.947 2.004 2.631 3.017 7.474 3.017 14.532zm-99.08-17.434h8.551v31.294l9.35-31.294h8.357l-9.528 31.003 10.475 38.305h-8.647l-10.007-36.457v36.457h-8.55V28.211zm-29.736 0h20.674v7.33h-11.74v22.134h11.18v7.33h-11.18v25.183h12.4v7.331H583.83V28.211zm-32.033 0h25.745v7.33h-8.357V97.52h-9.031V35.541h-8.357v-7.33zm-3.849 13.857v5.213h-8.966v-4.698c0-3.128-.285-5.313-.867-6.545-.587-1.238-1.555-1.86-2.904-1.86-1.668 0-2.825.624-3.465 1.86-.64 1.234-.961 3.851-.961 7.86v37.916c0 4.073.305 6.722.914 7.926.61 1.202 1.715 1.812 3.32 1.812 1.444 0 2.47-.596 3.064-1.765.592-1.17.899-3.256.899-6.222v-6.257h9.061v6.351c0 5.661-.981 9.59-2.918 11.758-1.943 2.177-5.374 3.271-10.283 3.271-4.827 0-8.23-1.33-10.184-3.976-1.957-2.645-2.937-7.523-2.937-14.629V45.645c0-7.058.98-11.903 2.937-14.532 1.954-2.63 5.42-3.946 10.361-3.946 4.797 0 8.149 1.076 10.057 3.24 1.909 2.164 2.872 6.05 2.872 11.661zm101.626-13.857h25.193v69.308h-9.031V35.541h-7.797l-.695 45.422c0 6.74-1.107 11.36-2.999 13.876-1.886 2.494-4.701 3.746-9.439 3.754v-7.431c.032.004.06.006.095.006 1.412 0 2.375-.578 2.904-1.733.53-1.171.963-4.32.963-8.17l.806-53.054zm-138.112 0h-11.804l-10.137 62.971h-.386l.899-62.971h-7.523v69.308h11.935l9.912-62.347h.48l-.85 62.347h7.474V28.211zM463.25 43.898c0-3.786-.353-6.351-1.06-7.7-.705-1.347-1.973-2.02-3.784-2.02-1.78 0-3.032.657-3.738 1.955-.705 1.3-1.059 3.882-1.059 7.765v37.934c0 3.914.354 6.513 1.059 7.795.706 1.282 1.959 1.925 3.738 1.925 1.811 0 3.08-.675 3.784-2.006.707-1.33 1.06-3.897 1.06-7.714V43.898zm9.03 1.747v34.438c0 7.139-1.026 12.03-3.08 14.661-2.054 2.63-5.71 3.944-10.97 3.944-5.055 0-8.599-1.33-10.635-4.008-2.037-2.68-3.049-7.539-3.049-14.597V45.645c0-7.123 1.026-11.98 3.082-14.579 2.052-2.6 5.725-3.9 11.018-3.9 5.085 0 8.615 1.317 10.616 3.947 2.006 2.631 3.017 7.474 3.017 14.532zM412.065 28.21h10.283c5.58 0 9.494.947 11.723 2.837 2.246 1.91 3.369 5.136 3.369 9.722v14.419c0 4.477-1.107 7.7-3.337 9.657-2.23 1.957-5.884 2.934-11.002 2.934h-2.486v29.74h-8.55V28.21zm8.55 6.96v25.697h1.555c2.405 0 4.043-.546 4.926-1.654.882-1.09 1.312-3.286 1.312-6.606v-9.255c0-3.32-.43-5.52-1.298-6.578-.85-1.074-2.502-1.603-4.94-1.603h-1.555zm-40.581-6.96h25.742v7.33h-8.356V97.52h-9.03V35.541h-8.356v-7.33zm-3.851 13.857v5.213h-8.965v-4.698c0-3.128-.29-5.309-.868-6.545-.592-1.236-1.555-1.86-2.902-1.86-1.67 0-2.825.624-3.465 1.86-.64 1.236-.964 3.85-.964 7.86v37.916c0 4.075.305 6.722.915 7.926.61 1.202 1.717 1.812 3.32 1.812 1.444 0 2.472-.592 3.064-1.765.595-1.17.9-3.256.9-6.222v-6.257h9.06v6.351c0 5.663-.978 9.593-2.918 11.758-1.941 2.18-5.374 3.271-10.282 3.271-4.826 0-8.227-1.33-10.186-3.976-1.957-2.648-2.934-7.523-2.934-14.629V45.645c0-7.058.977-11.9 2.934-14.532 1.96-2.63 5.42-3.946 10.362-3.946 4.796 0 8.149 1.076 10.057 3.24 1.909 2.166 2.872 6.05 2.872 11.661zm109.538-28.603h4.615c.896 2.799 3.27 5.48 6.393 5.48 3.108 0 5.493-2.667 6.394-5.48h4.695c-.644 6.036-4.901 11.878-11.172 11.878-6.133 0-10.297-6.07-10.925-11.878zM313.404 28.21h12.03c5.358 0 9.116.88 11.277 2.63 2.165 1.758 3.24 4.737 3.24 8.933v11.18c0 3.221-.673 5.655-2.022 7.284-1.341 1.62-3.514 2.662-6.529 3.096 3.223.368 5.572 1.375 7.026 2.98 1.462 1.616 2.18 4.032 2.18 7.22v14.42c0 4.23-1.064 7.215-3.192 8.95-2.133 1.743-5.905 2.615-11.323 2.615h-12.687V28.211zm8.549 6.96v22.776h1.827c2.727 0 4.583-.523 5.552-1.554.967-1.032 1.46-3.08 1.46-6.144v-7.474c0-3.065-.485-5.103-1.43-6.097-.959-1.005-2.827-1.506-5.582-1.506h-1.827zm0 29.643V90.7h1.924c3.018 0 5.035-.551 6.063-1.62 1.038-1.076 1.557-3.24 1.557-6.464v-9.816c0-3.225-.507-5.366-1.525-6.416-1.018-1.05-3.05-1.571-6.095-1.571h-1.924zM294.14 43.898c0-3.786-.354-6.353-1.059-7.7-.704-1.345-1.973-2.02-3.786-2.02-1.78 0-3.033.657-3.738 1.955-.703 1.299-1.058 3.886-1.058 7.765v37.934c0 3.91.355 6.515 1.058 7.795.705 1.282 1.959 1.925 3.738 1.925 1.813 0 3.08-.675 3.786-2.006.707-1.33 1.059-3.897 1.059-7.714V43.898zm9.03 1.747v34.438c0 7.133-1.03 12.032-3.081 14.661-2.05 2.628-5.709 3.944-10.97 3.944-5.054 0-8.6-1.332-10.634-4.008-2.036-2.678-3.048-7.539-3.048-14.597V45.645c0-7.123 1.028-11.98 3.08-14.579 2.054-2.597 5.727-3.9 11.018-3.9 5.085 0 8.617 1.32 10.619 3.947 2.003 2.63 3.017 7.474 3.017 14.532zM244.313 28.21h25.742v7.33h-8.356V97.52h-9.031V35.541h-8.355v-7.33zm-22.103 0h12.125l10.475 69.308h-9.015l-2.213-17.614h-11.566l-2.583 17.614h-8.5l11.277-69.308zm5.677 7.522l-4.924 37.165h9.625l-4.313-37.165h-.388zm-42.326-7.522h10.28c5.58 0 9.498.947 11.724 2.837 2.245 1.909 3.368 5.138 3.368 9.722v14.419c0 4.475-1.104 7.702-3.336 9.657-2.225 1.957-5.887 2.934-11.002 2.934h-2.486v29.74h-8.548V28.21zm8.548 6.96v25.697h1.555c2.407 0 4.041-.55 4.926-1.654.878-1.093 1.314-3.286 1.314-6.606v-9.255c0-3.32-.442-5.513-1.3-6.578-.859-1.064-2.502-1.603-4.94-1.603h-1.555zm-37.356-6.96h12.125l10.475 69.308h-9.015l-2.216-17.614h-11.563l-2.583 17.614h-8.5l11.277-69.308zm5.677 7.522l-4.924 37.165h9.623l-4.314-37.165h-.385zm-20.563 6.335v5.213H132.9v-4.698c0-3.128-.285-5.313-.869-6.545-.585-1.238-1.553-1.86-2.902-1.86-1.668 0-2.825.624-3.465 1.86-.64 1.234-.961 3.851-.961 7.86v37.916c0 4.073.305 6.722.915 7.926.61 1.202 1.714 1.812 3.318 1.812 1.446 0 2.471-.596 3.063-1.765.594-1.17.9-3.256.9-6.222v-6.257h9.062v6.351c0 5.661-.981 9.59-2.918 11.758-1.945 2.177-5.374 3.271-10.283 3.271-4.827 0-8.23-1.33-10.186-3.976-1.955-2.645-2.935-7.523-2.935-14.629V45.645c0-7.058.98-11.903 2.935-14.532 1.957-2.63 5.422-3.946 10.362-3.946 4.796 0 8.15 1.076 10.057 3.24 1.908 2.164 2.873 6.05 2.873 11.661z"/>
  </g>
</svg>
